[Header]
FileType HTR
DataType HTRS
FileVersion 1
NumSegments 64
NumFrames 3
DataFrameRate 24
EulerRotationOrder ZYX
CalibrationUnits mm
RotationUnits Degrees
GlobalAxisofGravity Y
BoneLengthAxis Y
ScaleFactor 1.0
[SegmentNames&Hierarchy]
Hips	GLOBAL
Spine	Hips
Spine1	Spine
Spine2	Spine1
Neck	Spine2
Head	Neck
LeftEye	Head
RightEye	Head
LeftShoulder	Spine2
LeftArm	LeftShoulder
LeftForeArm	LeftArm
LeftHand	LeftForeArm
LeftHandThumb1	LeftHand
LeftHandThumb2	LeftHandThumb1
LeftHandThumb3	LeftHandThumb2
LeftHandThumb4	LeftHandThumb3
LeftHandIndex1	LeftHand
LeftHandIndex2	LeftHandIndex1
LeftHandIndex3	LeftHandIndex2
LeftHandIndex4	LeftHandIndex3
LeftHandMiddle1	LeftHand
LeftHandMiddle2	LeftHandMiddle1
LeftHandMiddle3	LeftHandMiddle2
LeftHandMiddle4	LeftHandMiddle3
LeftHandRing1	LeftHand
LeftHandRing2	LeftHandRing1
LeftHandRing3	LeftHandRing2
LeftHandRing4	LeftHandRing3
LeftHandPinky1	LeftHand
LeftHandPinky2	LeftHandPinky1
LeftHandPinky3	LeftHandPinky2
LeftHandPinky4	LeftHandPinky3
RightShoulder	Spine2
RightArm	RightShoulder
RightForeArm	RightArm
RightHand	RightForeArm
RightHandPinky1	RightHand
RightHandPinky2	RightHandPinky1
RightHandPinky3	RightHandPinky2
RightHandPinky4	RightHandPinky3
RightHandRing1	RightHand
RightHandRing2	RightHandRing1
RightHandRing3	RightHandRing2
RightHandRing4	RightHandRing3
RightHandMiddle1	RightHand
RightHandMiddle2	RightHandMiddle1
RightHandMiddle3	RightHandMiddle2
RightHandMiddle4	RightHandMiddle3
RightHandIndex1	RightHand
RightHandIndex2	RightHandIndex1
RightHandIndex3	RightHandIndex2
RightHandIndex4	RightHandIndex3
RightHandThumb1	RightHand
RightHandThumb2	RightHandThumb1
RightHandThumb3	RightHandThumb2
RightHandThumb4	RightHandThumb3
LeftUpLeg	Hips
LeftLeg	LeftUpLeg
LeftFoot	LeftLeg
LeftToeBase	LeftFoot
RightUpLeg	Hips
RightLeg	RightUpLeg
RightFoot	RightLeg
RightToeBase	RightFoot
[BasePosition]
Hips	0	0	0	0	0	0	1
Spine	0	0	0	0	0	0	1
Spine1	0	0	0	0	0	0	1
Spine2	0	0	0	0	0	0	1
Neck	0	0	0	0	0	0	1
Head	0	0	0	0	0	0	1
LeftEye	0	0	0	0	0	0	1
RightEye	0	0	0	0	0	0	1
LeftShoulder	0	0	0	0	0	0	1
LeftArm	0	0	0	0	0	0	1
LeftForeArm	0	0	0	0	0	0	1
LeftHand	0	0	0	0	0	0	1
LeftHandThumb1	0	0	0	0	0	0	1
LeftHandThumb2	0	0	0	0	0	0	1
LeftHandThumb3	0	0	0	0	0	0	1
LeftHandThumb4	0	0	0	0	0	0	1
LeftHandIndex1	0	0	0	0	0	0	1
LeftHandIndex2	0	0	0	0	0	0	1
LeftHandIndex3	0	0	0	0	0	0	1
LeftHandIndex4	0	0	0	0	0	0	1
LeftHandMiddle1	0	0	0	0	0	0	1
LeftHandMiddle2	0	0	0	0	0	0	1
LeftHandMiddle3	0	0	0	0	0	0	1
LeftHandMiddle4	0	0	0	0	0	0	1
LeftHandRing1	0	0	0	0	0	0	1
LeftHandRing2	0	0	0	0	0	0	1
LeftHandRing3	0	0	0	0	0	0	1
LeftHandRing4	0	0	0	0	0	0	1
LeftHandPinky1	0	0	0	0	0	0	1
LeftHandPinky2	0	0	0	0	0	0	1
LeftHandPinky3	0	0	0	0	0	0	1
LeftHandPinky4	0	0	0	0	0	0	1
RightShoulder	0	0	0	0	0	0	1
RightArm	0	0	0	0	0	0	1
RightForeArm	0	0	0	0	0	0	1
RightHand	0	0	0	0	0	0	1
RightHandPinky1	0	0	0	0	0	0	1
RightHandPinky2	0	0	0	0	0	0	1
RightHandPinky3	0	0	0	0	0	0	1
RightHandPinky4	0	0	0	0	0	0	1
RightHandRing1	0	0	0	0	0	0	1
RightHandRing2	0	0	0	0	0	0	1
RightHandRing3	0	0	0	0	0	0	1
RightHandRing4	0	0	0	0	0	0	1
RightHandMiddle1	0	0	0	0	0	0	1
RightHandMiddle2	0	0	0	0	0	0	1
RightHandMiddle3	0	0	0	0	0	0	1
RightHandMiddle4	0	0	0	0	0	0	1
RightHandIndex1	0	0	0	0	0	0	1
RightHandIndex2	0	0	0	0	0	0	1
RightHandIndex3	0	0	0	0	0	0	1
RightHandIndex4	0	0	0	0	0	0	1
RightHandThumb1	0	0	0	0	0	0	1
RightHandThumb2	0	0	0	0	0	0	1
RightHandThumb3	0	0	0	0	0	0	1
RightHandThumb4	0	0	0	0	0	0	1
LeftUpLeg	0	0	0	0	0	0	1
LeftLeg	0	0	0	0	0	0	1
LeftFoot	0	0	0	0	0	0	1
LeftToeBase	0	0	0	0	0	0	1
RightUpLeg	0	0	0	0	0	0	1
RightLeg	0	0	0	0	0	0	1
RightFoot	0	0	0	0	0	0	1
RightToeBase	0	0	0	0	0	0	1
[Hips]
21	107.9340973	1337.149414	-23.33830261	11.93930435	1.600466371	-1.741611362	1.0
22	116.0967636	1318.703491	-33.30216217	13.66653919	-0.8157871366	-3.338863373	1.0
23	122.3622055	1277.588013	-34.60734558	15.08394432	-4.082659721	-5.674902916	1.0
[Spine]
21	0	101.8159943	1.315000057	9.737955093	2.541324139	2.397240877	1.0
22	0	101.8159943	1.315000057	9.546310425	3.627545595	4.686053276	1.0
23	0	101.8159943	1.315000057	8.602887154	4.743579388	7.022461891	1.0
[Spine1]
21	0	100.8349991	-10.00800037	2.684051514	-0.1315567195	-2.53110671	1.0
22	0	100.8349991	-10.00800037	2.551115751	-0.06384072453	-2.825584888	1.0
23	0	100.8349991	-10.00800037	2.325486183	0.007990366779	-2.490708828	1.0
[Spine2]
21	0	91	-13.73399925	2.638694763	-0.2782505751	-2.489377737	1.0
22	0	91	-13.73399925	2.506159782	-0.2431554049	-2.779239893	1.0
23	0	91	-13.73399925	2.27862215	-0.1617772132	-2.443039656	1.0
[Neck]
21	0	166.7169952	-25.16200066	-4.42583704	-0.5384076238	-0.5792355537	1.0
22	0	166.7169952	-25.16200066	-5.209222794	-0.3532136977	-1.234550595	1.0
23	0	166.7169952	-25.16200066	-5.14449501	-0.08691851795	-1.847471118	1.0
[Head]
21	0	96.17900085	16.84999847	-23.4794178	-1.91266942	-1.413042545	1.0
22	0	96.17900085	16.84999847	-25.31378555	-1.208478451	-2.593673706	1.0
23	0	96.17900085	16.84999847	-24.77783775	-0.1294328272	-4.687621593	1.0
[LeftEye]
21	30.6760006	64.09500122	92.83599854	0	0	0	1.0
22	30.6760006	64.09500122	92.83599854	0	0	0	1.0
23	30.6760006	64.09500122	92.83599854	0	0	0	1.0
[RightEye]
21	-30.6760006	64.09500122	92.83499908	0	0	0	1.0
22	-30.6760006	64.09500122	92.83499908	0	0	0	1.0
23	-30.6760006	64.09500122	92.83499908	0	0	0	1.0
[LeftShoulder]
21	45.70400238	109.4599991	-26.28000069	5.248979568	-9.937989235	10.90124035	1.0
22	45.70400238	109.4599991	-26.28000069	5.562973499	-9.354952812	9.360200882	1.0
23	45.70400238	109.4599991	-26.28000069	5.549718857	-8.33806324	8.652694702	1.0
[LeftArm]
21	105.923996	-5.24600029	-22.32099915	-31.7522316	34.88085556	-21.76402473	1.0
22	105.923996	-5.24600029	-22.32099915	-27.23857498	39.85115051	-27.29357338	1.0
23	105.923996	-5.24600029	-22.32099915	-26.20386887	39.90652466	-37.46194077	1.0
[LeftForeArm]
21	278.414978	-0.0009999999311	0	8.475825598e-05	-88.5063324	-0.0002856072679	1.0
22	278.414978	-0.0009999999311	0	8.786736544e-06	-79.97317505	-0.000227332479	1.0
23	278.414978	-0.0009999999311	0	-9.014011084e-06	-68.23873138	-0.0001939853828	1.0
[LeftHand]
21	283.2879944	0	0	2.815220594	-19.2557373	29.13118744	1.0
22	283.2879944	0	0	8.381808281	-19.04219246	35.9883194	1.0
23	283.2879944	0	0	10.59554005	-14.7367363	37.70818329	1.0
[LeftHandThumb1]
21	24.6609993	-15.75	26.8239994	14.59456158	-8.848369598	9.633702278	1.0
22	24.6609993	-15.75	26.8239994	12.06919289	-12.29868984	9.390910149	1.0
23	24.6609993	-15.75	26.8239994	10.93778706	-13.76253319	9.318593025	1.0
[LeftHandThumb2]
21	32.29800034	-18.64699936	18.64699936	-4.429113865	21.54021645	-4.898190975	1.0
22	32.29800034	-18.64699936	18.64699936	-6.815762043	13.61046505	-5.77560997	1.0
23	32.29800034	-18.64699936	18.64699936	-7.78621006	10.17432308	-6.042537689	1.0
[LeftHandThumb3]
21	26.52600098	-15.31499958	15.31499958	0.9149356484	4.854273796	-1.08204484	1.0
22	26.52600098	-15.31499958	15.31499958	0.1460446715	1.715610981	-1.769173861	1.0
23	26.52600098	-15.31499958	15.31499958	-0.1742941439	0.356441915	-2.052840948	1.0
[LeftHandThumb4]
21	19.54599953	-11.28499985	11.28499985	0	0	0	1.0
22	19.54599953	-11.28499985	11.28499985	0	0	0	1.0
23	19.54599953	-11.28499985	11.28499985	0	0	0	1.0
[LeftHandIndex1]
21	91.09299469	-5.170999527	22.60099792	-0.5473186374	-0.9068552852	-12.54693127	1.0
22	91.09299469	-5.170999527	22.60099792	0.8854654431	-6.827498913	3.972769022	1.0
23	91.09299469	-5.170999527	22.60099792	1.33678472	-9.480870247	11.06367016	1.0
[LeftHandIndex2]
21	36.76399994	0	0	-0.8410819769	3.132325649	-24.70509529	1.0
22	36.76399994	0	0	-0.1364661604	1.545671344	-7.570559025	1.0
23	36.76399994	0	0	0.01561249886	0.8092221618	-0.1797189862	1.0
[LeftHandIndex3]
21	28.83100128	0	0	-0.1976339221	1.210824013	-14.29560661	1.0
22	28.83100128	0	0	-0.02612015232	-0.494848907	2.812094927	1.0
23	28.83100128	0	0	-0.1102893427	-1.232728004	10.20148277	1.0
[LeftHandIndex4]
21	23.92700005	0	0	0	0	0	1.0
22	23.92700005	0	0	0	0	0	1.0
23	23.92700005	0	0	0	0	0	1.0
[LeftHandMiddle1]
21	95.33399963	0	0	-2.026007414	6.728581429	-20.18278503	1.0
22	95.33399963	0	0	-0.04915039241	3.697196245	-3.132123947	1.0
23	95.33399963	0	0	0.6493158937	2.173402309	4.159888744	1.0
[LeftHandMiddle2]
21	36.98199844	0	0	-1.722374082	4.120964527	-37.56665039	1.0
22	36.98199844	0	0	-0.6493856311	2.76021266	-20.37265587	1.0
23	36.98199844	0	0	-0.3213359118	2.085390568	-12.96079731	1.0
[LeftHandMiddle3]
21	29.50900078	0	0	-0.2583035529	1.881250024	-16.39094543	1.0
22	29.50900078	0	0	0.00552132586	0.2049727887	0.7214558721	1.0
23	29.50900078	0	0	-0.03689135239	-0.528912425	8.110097885	1.0
[LeftHandMiddle4]
21	28.3390007	0	0	0	0	0	1.0
22	28.3390007	0	0	0	0	0	1.0
23	28.3390007	0	0	0	0	0	1.0
[LeftHandRing1]
21	91.04499817	-0.4390000105	-18.65100098	-3.702049255	14.13949394	-31.15310097	1.0
22	91.04499817	-0.4390000105	-18.65100098	-1.512866378	14.65897369	-13.51056576	1.0
23	91.04499817	-0.4390000105	-18.65100098	-0.6695420742	14.57240963	-5.887330532	1.0
[LeftHandRing2]
21	31.54000092	0	0	-1.461963773	4.369062424	-44.35121918	1.0
22	31.54000092	0	0	-0.5214677453	2.951962709	-27.09583282	1.0
23	31.54000092	0	0	-0.2552271485	2.265264034	-19.65706635	1.0
[LeftHandRing3]
21	29.37700081	0	0	-0.2036879808	2.298052311	-23.46000862	1.0
22	29.37700081	0	0	0.06961094588	0.6230527163	-6.349291801	1.0
23	29.37700081	0	0	0.03131798655	-0.1111689582	1.037417293	1.0
[LeftHandRing4]
21	26.47500038	0	0	0	0	0	1.0
22	26.47500038	0	0	0	0	0	1.0
23	26.47500038	0	0	0	0	0	1.0
[LeftHandPinky1]
21	80.77799988	-4.887000084	-38.06099701	-7.73875618	21.77782059	-41.71060944	1.0
22	80.77799988	-4.887000084	-38.06099701	-3.504769325	25.4403801	-23.31775093	1.0
23	80.77799988	-4.887000084	-38.06099701	-1.641743064	26.54532433	-15.1896677	1.0
[LeftHandPinky2]
21	36	0	0	-2.251253128	4.066513062	-49.61763763	1.0
22	36	0	0	-1.05294621	2.831501245	-32.30487823	1.0
23	36	0	0	-0.6612021923	2.197746992	-24.84166336	1.0
[LeftHandPinky3]
21	21.14200211	0	0	-0.7345626354	3.200724363	-24.6612072	1.0
22	21.14200211	0	0	-0.1215628535	1.604310513	-7.528717995	1.0
23	21.14200211	0	0	-0.009112089872	0.8721336126	-0.1380995214	1.0
[LeftHandPinky4]
21	19.75699997	0	0	0	0	0	1.0
22	19.75699997	0	0	0	0	0	1.0
23	19.75699997	0	0	0	0	0	1.0
[RightShoulder]
21	-45.70000076	109.4620056	-26.28000069	5.814213276	-3.676569462	5.729155064	1.0
22	-45.70000076	109.4620056	-26.28000069	5.913214207	-3.678181648	5.011298656	1.0
23	-45.70000076	109.4620056	-26.28000069	6.019260883	-2.954677105	5.368734837	1.0
[RightArm]
21	-105.9280014	-5.248000145	-22.32099915	-26.46317673	-5.773137093	49.57160568	1.0
22	-105.9280014	-5.248000145	-22.32099915	-21.37170029	-7.174180984	56.94060898	1.0
23	-105.9280014	-5.248000145	-22.32099915	-15.58192825	-8.132653236	59.84873962	1.0
[RightForeArm]
21	-278.414978	0	0	1.36002418e-05	55.64029694	1.278241962e-05	1.0
22	-278.414978	0	0	-1.327646987e-05	49.86490631	-1.486097244e-05	1.0
23	-278.414978	0	0	7.819452549e-06	45.1928978	6.522931926e-06	1.0
[RightHand]
21	-283.2879944	0	0.0009999999311	7.856327057	18.18724442	-22.18029594	1.0
22	-283.2879944	0	0.0009999999311	9.178139687	16.35944748	-28.35921097	1.0
23	-283.2879944	0	0.0009999999311	2.998193026	15.11724472	-41.7651062	1.0
[RightHandPinky1]
21	-80.76699829	-4.885000229	-38.06000137	-1.695535064	-26.45565796	15.48616695	1.0
22	-80.76699829	-4.885000229	-38.06000137	-1.664282322	-26.47706985	15.34514332	1.0
23	-80.76699829	-4.885000229	-38.06000137	-1.647534132	-26.50180244	15.23478413	1.0
[RightHandPinky2]
21	-36	0	0.0009999999311	-0.6734890342	-2.220358133	25.11845016	1.0
22	-36	0	0.0009999999311	-0.6674346924	-2.209059715	24.99014091	1.0
23	-36	0	0.0009999999311	-0.6626023054	-2.199996233	24.8873291	1.0
[RightHandPinky3]
21	-21.14200211	0	0	-0.1797758043	1.973038435	2.036595345	1.0
22	-21.14200211	0	0	-0.1782519221	1.985695362	1.909600496	1.0
23	-21.14200211	0	0	-0.1770507097	1.995805144	1.808166981	1.0
[RightHandPinky4]
21	-19.75699997	0	0	0	0	0	1.0
22	-19.75699997	0	0	0	0	0	1.0
23	-19.75699997	0	0	0	0	0	1.0
[RightHandRing1]
21	-91.03599548	-0.4390000105	-18.65100098	-0.6979891658	-14.55448914	6.168064594	1.0
22	-91.03599548	-0.4390000105	-18.65100098	-0.684273243	-14.55182171	6.036980152	1.0
23	-91.03599548	-0.4390000105	-18.65100098	-0.6734486818	-14.5532589	5.932064533	1.0
[RightHandRing2]
21	-31.54000092	0	0	-0.2634595931	-2.29107666	19.93331718	1.0
22	-31.54000092	0	0	-0.2596128583	-2.279008389	19.80540466	1.0
23	-31.54000092	0	0	-0.2565568686	-2.269354105	19.70327759	1.0
[RightHandRing3]
21	-29.37700081	0	0	-0.0644782111	2.079872847	-2.282558441	1.0
22	-29.37700081	0	0	-0.06623768806	2.09239316	-2.409679413	1.0
23	-29.37700081	0	0	-0.06766312569	2.102397919	-2.511183023	1.0
[RightHandRing4]
21	-26.47500038	0	0	0	0	0	1.0
22	-26.47500038	0	0	0	0	0	1.0
23	-26.47500038	0	0	0	0	0	1.0
[RightHandMiddle1]
21	-95.32500458	0	0	0.6248782277	-2.221112967	-3.886754274	1.0
22	-95.32500458	0	0	0.6361836195	-2.193805695	-4.011791706	1.0
23	-95.32500458	0	0	0.6452229023	-2.167738438	-4.111177921	1.0
[RightHandMiddle2]
21	-36.98199844	0	0	-0.3319196999	-2.110975981	13.23575115	1.0
22	-36.98199844	0	0	-0.3269937932	-2.099053621	13.10834217	1.0
23	-36.98199844	0	0	-0.3230806589	-2.089508295	13.00659466	1.0
[RightHandMiddle3]
21	-29.50900078	0	0	-0.01235359162	0.2976487875	-4.203283787	1.0
22	-29.50900078	0	0	-0.01305081416	0.3102733791	-4.330349922	1.0
23	-29.50900078	0	0	-0.01362583973	0.3203590512	-4.431836128	1.0
[RightHandMiddle4]
21	-28.3390007	0	0.0009999999311	0	0	0	1.0
22	-28.3390007	0	0.0009999999311	0	0	0	1.0
23	-28.3390007	0	0.0009999999311	0	0	0	1.0
[RightHandIndex1]
21	-91.08300018	-5.167999744	22.60099792	1.318086624	9.367705345	-10.8042984	1.0
22	-91.08300018	-5.167999744	22.60099792	1.325488091	9.418301582	-10.92552376	1.0
23	-91.08300018	-5.167999744	22.60099792	1.333274245	9.467940331	-11.02076435	1.0
[RightHandIndex2]
21	-36.76399994	0	0	0.01167515852	-0.8368501067	0.4539149702	1.0
22	-36.76399994	0	0	0.01351688337	-0.8240455389	0.326839447	1.0
23	-36.76399994	0	0	0.01496837474	-0.8138180375	0.2253431827	1.0
[RightHandIndex3]
21	-28.83100128	0	0	-0.1053499281	1.848965526	-6.251287937	1.0
22	-28.83100128	0	0	-0.10675776	1.861673355	-6.37838459	1.0
23	-28.83100128	0	0	-0.1079011485	1.8718189	-6.479897976	1.0
[RightHandIndex4]
21	-23.92700005	0	0	0	0	0	1.0
22	-23.92700005	0	0	0	0	0	1.0
23	-23.92700005	0	0	0	0	0	1.0
[RightHandThumb1]
21	-24.64799881	-15.72700024	26.82600021	10.97254562	13.69385052	-9.309798241	1.0
22	-24.64799881	-15.72700024	26.82600021	10.94972134	13.72227001	-9.308465004	1.0
23	-24.64799881	-15.72700024	26.82600021	10.9260664	13.75342751	-9.307621956	1.0
[RightHandThumb2]
21	-32.29800034	-18.64699936	18.64699936	-7.748786449	-10.30790329	6.034413815	1.0
22	-32.29800034	-18.64699936	18.64699936	-7.767656803	-10.24014282	6.039097309	1.0
23	-32.29800034	-18.64699936	18.64699936	-7.78781414	-10.16772175	6.044070721	1.0
[RightHandThumb3]
21	-26.52600098	-15.31399918	15.31399918	-0.2575543821	0.4739002287	2.809838057	1.0
22	-26.52600098	-15.31399918	15.31399918	-0.2634443343	0.5007796288	2.815266609	1.0
23	-26.52600098	-15.31399918	15.31399918	-0.2697347701	0.5295153856	2.821059465	1.0
[RightHandThumb4]
21	-19.54599953	-11.28499985	11.28499985	0	0	0	1.0
22	-19.54599953	-11.28499985	11.28499985	0	0	0	1.0
23	-19.54599953	-11.28499985	11.28499985	0	0	0	1.0
[LeftUpLeg]
21	82.07800293	-67.51699829	-15.99599934	-60.82145309	3.130440235	2.667749882	1.0
22	82.07800293	-67.51699829	-15.99599934	-53.38620758	3.16749382	3.593560934	1.0
23	82.07800293	-67.51699829	-15.99599934	-45.49658966	5.428744793	5.160493374	1.0
[LeftLeg]
21	0	-443.7049866	2.845999956	94.25504303	0.5906933546	9.335783005	1.0
22	0	-443.7049866	2.845999956	68.62510681	2.123848677	7.355680943	1.0
23	0	-443.7049866	2.845999956	46.01489639	1.0505687	3.160372496	1.0
[LeftFoot]
21	0	-444.2789917	-29.8219986	20.95347786	1.478662491	-1.787285209	1.0
22	0	-444.2789917	-29.8219986	24.31746483	0.1903489828	0.2416734695	1.0
23	0	-444.2789917	-29.8219986	28.086586	-0.2757284343	0.02251213975	1.0
[LeftToeBase]
21	0	-87.28699493	107.1060028	2.46645093	4.295948656e-06	2.910380772e-06	1.0
22	0	-87.28699493	107.1060028	2.871978283	-4.219970378e-06	-2.157171593e-06	1.0
23	0	-87.28699493	107.1060028	3.915525198	8.637589985e-07	-1.057807708e-06	1.0
[RightUpLeg]
21	-82.07800293	-67.51699829	-15.99599934	-56.809021	-9.99399662	2.14687562	1.0
22	-82.07800293	-67.51699829	-15.99599934	-72.06802368	-10.20257092	10.03657436	1.0
23	-82.07800293	-67.51699829	-15.99599934	-83.72561646	-6.59995079	25.54810905	1.0
[RightLeg]
21	0	-443.7049866	2.861999989	102.5488968	1.163254142	-9.997088432	1.0
22	0	-443.7049866	2.861999989	129.915802	7.80532217	-6.896377563	1.0
23	0	-443.7049866	2.861999989	146.8215485	10.93418598	-2.442263842	1.0
[RightFoot]
21	0	-444.2770081	-29.83799934	22.82243538	-6.098893642	5.104480267	1.0
22	0	-444.2770081	-29.83799934	19.22024727	-3.781844854	3.002120018	1.0
23	0	-444.2770081	-29.83799934	14.31742764	-1.856042624	1.063790083	1.0
[RightToeBase]
21	0	-87.28699493	107.1060028	1.447021961	1.536541163e-06	5.700423458e-07	1.0
22	0	-87.28699493	107.1060028	1.065873504	6.756143875e-07	-5.394266736e-06	1.0
23	0	-87.28699493	107.1060028	0.5984296799	9.133309504e-07	5.516578312e-06	1.0
[EndOfFile]
